<?xml version="1.0"?>
<svg xmlns="http://www.w3.org/2000/svg" height="512px" viewBox="0 0 512 512" width="512px" class=""><g><path d="m309.941406 277.4375c-13.058594-66.664062-98.488281-66.449219-111.503906-.007812-6.707031 34.117187-35.089844 32.0625-42.984375 68.058593-6.726563 30.667969 16.105469 51.464844 46.570313 51.464844 5.632812 0 55.339843-11.363281 91.871093-1.523437 13.738281 3.703124 35.40625.890624 48.503907-11.613282 16.703124-15.945312 10.515624-38.339844 10.414062-38.339844-7.898438-35.984374-36.207031-33.90625-42.871094-68.039062zm-103.339844 89.03125c-4.78125 1.296875-25.3125 1.257812-21.84375-14.554688 4.835938-22.0625 34.375-24.230468 43.117188-68.710937 4.617188-23.570313 20.179688-25.347656 24.746094-25.347656 17.132812 0 24.964844 10.464843 27.878906 25.339843 8.683594 44.488282 38.164062 46.621094 43.015625 68.71875 5.019531 32.644532-52.066406-2.910156-116.914063 14.554688zm0 0" data-original="#000000" class="active-path" data-old_color="#000000" fill="#5C415D"/><path d="m207.824219 226.898438c31.949219 0 52.210937-34.214844 41.996093-69.230469-13.625-46.703125-67.484374-57.472657-88.488281-19.390625-20.324219 36.84375 6.800781 88.621094 46.492188 88.621094zm-20.222657-74.128907c13.074219-23.699219 45.570313 11.449219 31.769532 36.449219-13.097656 23.726562-45.582032-11.414062-31.769532-36.449219zm0 0" data-original="#000000" class="active-path" data-old_color="#000000" fill="#5C415D"/><path d="m308.644531 226.898438c57.324219 0 74.488281-94.6875 20.027344-110.25-24.796875-7.085938-53.019531 9.894531-62.089844 41.019531-10.113281 34.675781 9.671875 69.230469 42.0625 69.230469zm-13.261719-60.835938c5.601563-19.21875 24.863282-28.851562 33.425782-13.332031 10.457031 18.945312-6.847656 48.457031-23.398438 43.726562-10.671875-3.046875-13.421875-18.757812-10.027344-30.394531zm0 0" data-original="#000000" class="active-path" data-old_color="#000000" fill="#5C415D"/><path d="m181.847656 290.707031c18.402344-43.808593-25.222656-97.308593-66.894531-80.472656-50.203125 20.28125-28.042969 107.734375 27.132813 107.734375 16.28125 0 32.15625-9.164062 39.761718-27.261719zm-27.660156-11.617187c-10.441406 24.855468-46.597656-6.621094-35.507812-33.011719 10.265624-24.449219 46.765624 6.214844 35.507812 33.011719zm0 0" data-original="#000000" class="active-path" data-old_color="#000000" fill="#5C415D"/><path d="m420.976562 238.195312c-10.722656-25.507812-38.855468-34.550781-63.261718-20.933593-47.777344 26.652343-39.644532 104.445312 12.183594 104.445312 38.175781.003907 66.449218-46.953125 51.078124-83.511719zm-28.507812 34.84375c-7.632812 18.519532-27.832031 26.015626-34.648438 9.832032-7.25-17.210938 7.273438-41.96875 23.246094-41.96875 13.699219 0 17.066406 18.394531 11.402344 32.136718zm0 0" data-original="#000000" class="active-path" data-old_color="#000000" fill="#5C415D"/><path d="m437.019531 74.980469c-48.351562-48.351563-112.640625-74.980469-181.019531-74.980469s-132.667969 26.628906-181.019531 74.980469c-48.351563 48.351562-74.980469 112.640625-74.980469 181.019531s26.628906 132.667969 74.980469 181.019531c48.351562 48.351563 112.640625 74.980469 181.019531 74.980469s132.667969-26.628906 181.019531-74.980469c48.351563-48.351562 74.980469-112.640625 74.980469-181.019531s-26.628906-132.667969-74.980469-181.019531zm-21.214843 340.824219c-88.316407 88.320312-231.277344 88.335937-319.609376 0-88.320312-88.316407-88.335937-231.277344 0-319.609376 88.316407-88.320312 231.28125-88.335937 319.609376 0 88.320312 88.316407 88.335937 231.277344 0 319.609376zm0 0" data-original="#000000" class="active-path" data-old_color="#000000" fill="#5C415D"/></g> </svg>
